<svg version="1.2" xmlns="http://www.w3.org/2000/svg" viewBox="0 0 500 500" width="500" height="500">
	<title>developers</title>
	<style>
		.s0 { fill: #f5f5f5 } 
		.s1 { fill: #e6e6e6 } 
		.s2 { fill: #e0e0e0 } 
		.s3 { fill: #f0f0f0 } 
		.s4 { opacity: .4;fill: #e0e0e0 } 
		.s5 { fill: #fafafa } 
		.s6 { fill: #ffffff } 
		.s7 { fill: #ebebeb } 
		.s8 { fill: #4285f4 } 
		.s9 { opacity: .5;fill: #000000 } 
		.s10 { opacity: .5;fill: #ffffff } 
		.s11 { opacity: .4;fill: #ffffff } 
		.s12 { opacity: .4;fill: #000000 } 
		.s13 { fill: #7f3e3b } 
		.s14 { opacity: .2;fill: #000000 } 
		.s15 { fill: #263238 } 
		.s16 { fill: #630f0f } 
		.s17 { opacity: .1;fill: #ffffff } 
		.s18 { opacity: .7;fill: #ffffff } 
		.s19 { fill: #a02724 } 
		.s20 { fill: #b55b52 } 
		.s21 { fill: #000000 } 
		.s22 { opacity: .3;fill: #000000 } 
	</style>
	<g id="freepik--Shadows--inject-2">
		<g id="freepik--Shadow--inject-214--inject-2">
			<path id="freepik--path--inject-214--inject-2" fill-rule="evenodd" class="s0" d="m250 421.4c-107.2 0-193.9-5.1-193.9-11.3 0-6.3 86.7-11.3 193.9-11.3 107.2 0 193.9 5 193.9 11.3 0 6.2-86.7 11.3-193.9 11.3z"/>
		</g>
	</g>
	<g id="freepik--background-complete--inject-2">
		<path class="s1" d="m238.4 341.5h-193.1q-1.1 0-2.2-0.4-1-0.4-1.8-1.2-0.8-0.8-1.3-1.9-0.4-1-0.4-2.2v-271.4q0-1.1 0.5-2.2 0.4-1 1.2-1.8 0.8-0.8 1.8-1.2 1.1-0.5 2.2-0.5h193.1q1.1 0 2.2 0.5 1 0.4 1.8 1.2 0.8 0.8 1.3 1.9 0.4 1 0.4 2.1v271.4q0 1.2-0.4 2.2-0.5 1-1.3 1.9-0.8 0.8-1.8 1.2-1.1 0.4-2.2 0.4zm-193.1-282.6q-1.1 0-2.1 0.4-1 0.5-1.7 1.2-0.8 0.8-1.2 1.8-0.4 1-0.5 2.1v271.4q0.1 1.1 0.5 2.1 0.4 1 1.2 1.8 0.7 0.7 1.7 1.2 1 0.4 2.1 0.4h193.1q1.1 0 2.1-0.4 1-0.5 1.8-1.2 0.7-0.8 1.1-1.8 0.4-1 0.4-2.1v-271.4q0-1.1-0.4-2.1-0.4-1-1.1-1.8-0.8-0.7-1.8-1.2-1-0.4-2.1-0.4z"/>
		<path class="s1" d="m454.7 341.5h-193.1q-1.1 0-2.2-0.4-1-0.4-1.8-1.2-0.8-0.9-1.3-1.9-0.4-1-0.4-2.2v-271.4q0-1.1 0.4-2.2 0.5-1 1.3-1.8 0.8-0.8 1.8-1.2 1.1-0.5 2.2-0.5h193.1q1.1 0 2.2 0.5 1 0.4 1.8 1.2 0.8 0.8 1.3 1.8 0.4 1.1 0.4 2.2v271.4q0 1.2-0.4 2.2-0.5 1-1.3 1.9-0.8 0.8-1.8 1.2-1.1 0.4-2.2 0.4zm-193.1-282.6q-1.1 0-2.1 0.4-1 0.5-1.8 1.2-0.7 0.8-1.1 1.8-0.4 1-0.4 2.1v271.4q0 1.1 0.4 2.1 0.4 1 1.1 1.8 0.8 0.7 1.8 1.2 1 0.4 2.1 0.4h193.1q1.1 0 2.1-0.4 1-0.5 1.8-1.2 0.7-0.8 1.1-1.8 0.5-1 0.5-2.1v-271.4q0-1.1-0.5-2.1-0.4-1-1.1-1.8-0.8-0.7-1.8-1.2-1-0.4-2.1-0.4z"/>
		<path fill-rule="evenodd" class="s2" d="m53.8 392.2h41.2v0.3h-41.2z"/>
		<path fill-rule="evenodd" class="s2" d="m137.7 390.2h41.3v0.3h-41.3z"/>
		<path fill-rule="evenodd" class="s2" d="m222.8 390.2h10v0.3h-10z"/>
		<path fill-rule="evenodd" class="s2" d="m86.6 398.8l46.2-0.1v0.3h-46.2z"/>
		<path fill-rule="evenodd" class="s2" d="m271.2 392.1h21.6v0.2h-21.6z"/>
		<path fill-rule="evenodd" class="s2" d="m301.7 392.1h27.9v0.2h-27.9z"/>
		<path fill-rule="evenodd" class="s2" d="m401.9 396.3h62.4v0.3h-62.4z"/>
		<path fill-rule="evenodd" class="s1" d="m364.8 114.2h47.6v33.3h-47.6z"/>
		<path fill-rule="evenodd" class="s3" d="m364.8 114.2h21.5v33.3h-21.5z"/>
		<path class="s4" d="m375.6 118.7c2.8 0 5.4 1.8 6.5 4.4 1.1 2.7 0.5 5.7-1.5 7.7-2.1 2.1-5.1 2.7-7.8 1.6-2.6-1.1-4.3-3.7-4.3-6.6q0-1.4 0.5-2.7 0.5-1.3 1.5-2.3 1-1 2.3-1.5 1.3-0.6 2.7-0.6z"/>
		<path class="s2" d="m379 139.7c0 1.4-0.8 2.6-2.1 3.2-1.3 0.5-2.8 0.2-3.8-0.8-1-1-1.3-2.5-0.8-3.8 0.6-1.3 1.8-2.1 3.2-2.1q0.7 0 1.4 0.3 0.6 0.2 1.1 0.7 0.5 0.5 0.7 1.1 0.3 0.7 0.3 1.4z"/>
		<path fill-rule="evenodd" class="s5" d="m375.5 128.3c-1.1 0-2-0.9-2-2 0-1.1 0.9-2 2-2 1.1 0 2 0.9 2 2 0 1.1-0.9 2-2 2z"/>
		<path fill-rule="evenodd" class="s3" d="m290.2 102.3h20.6v45.2h-20.6z"/>
		<path fill-rule="evenodd" class="s1" d="m310.2 102.3h27.4v45.2h-27.4z"/>
		<path class="s6" d="m300.4 116.7c1.2 0 2.2 0.7 2.7 1.7 0.4 1.1 0.2 2.3-0.6 3.1-0.9 0.9-2.1 1.1-3.2 0.7-1-0.5-1.7-1.5-1.7-2.7q0-0.6 0.2-1.1 0.2-0.5 0.6-0.9 0.4-0.4 0.9-0.6 0.6-0.2 1.1-0.2z"/>
		<path class="s6" d="m300.4 112.2c0.6 0 1.1 0.4 1.4 0.9 0.2 0.5 0.1 1.1-0.4 1.6-0.4 0.4-1 0.5-1.5 0.3-0.6-0.3-0.9-0.8-0.9-1.4q0-0.2 0.1-0.5 0.1-0.3 0.3-0.5 0.2-0.2 0.5-0.3 0.2-0.1 0.5-0.1z"/>
		<path class="s6" d="m300.4 107.9c0.6 0 1.1 0.3 1.4 0.9 0.2 0.5 0.1 1.1-0.4 1.5-0.4 0.4-1 0.6-1.5 0.3-0.6-0.2-0.9-0.7-0.9-1.3q0-0.3 0.1-0.5 0.1-0.3 0.3-0.5 0.2-0.2 0.5-0.3 0.2-0.1 0.5-0.1z"/>
		<path fill-rule="evenodd" class="s2" d="m290.7 127.7h46.4v0.7h-46.4z"/>
		<path fill-rule="evenodd" class="s2" d="m290.7 131.7h46.4v0.7h-46.4z"/>
		<path fill-rule="evenodd" class="s2" d="m290.7 135.7h46.4v0.7h-46.4z"/>
		<path fill-rule="evenodd" class="s2" d="m290.7 139.7h46.4v0.7h-46.4z"/>
		<path fill-rule="evenodd" class="s2" d="m290.7 143.7h46.4v0.7h-46.4z"/>
		<path fill-rule="evenodd" class="s2" d="m299 128.9h1.9v1.9h-1.9z"/>
		<path fill-rule="evenodd" class="s2" d="m299 133.1h1.9v2h-1.9z"/>
		<path fill-rule="evenodd" class="s2" d="m299 136.9h1.9v2h-1.9z"/>
		<path fill-rule="evenodd" class="s2" d="m299 141h1.9v2h-1.9z"/>
		<path fill-rule="evenodd" class="s2" d="m299 145h1.9v1.9h-1.9z"/>
		<path class="s2" d="m250.9 192h-1v-38.3q0-1.5 0.6-3 0.6-1.4 1.7-2.5 1.1-1.1 2.5-1.7 1.4-0.6 3-0.6h33v1h-33q-1.4 0-2.6 0.5-1.3 0.6-2.2 1.5-1 1-1.5 2.2-0.5 1.3-0.5 2.6z"/>
		<path class="s2" d="m248.9 192.1h-1v-38.7c0-1.2 0.2-2.4 0.7-3.6 0.5-1.1 1.2-2.2 2-3.1 0.9-0.8 2-1.5 3.1-2 1.2-0.5 2.4-0.7 3.6-0.7h33.4v1h-33.4c-1.1 0-2.2 0.2-3.2 0.6-1 0.4-2 1.1-2.7 1.9-0.8 0.7-1.5 1.7-1.9 2.7-0.4 1-0.6 2.1-0.6 3.2z"/>
		<path fill-rule="evenodd" class="s1" d="m108.1 96h31.3v33.3h-31.3z"/>
		<path fill-rule="evenodd" class="s0" d="m139.4 96h8v33.3h-8z"/>
		<path fill-rule="evenodd" class="s1" d="m99.8 90.9h23.6v38.4h-23.6z"/>
		<path fill-rule="evenodd" class="s0" d="m123.4 90.9h6.8v38.4h-6.8z"/>
		<path fill-rule="evenodd" class="s7" d="m96.6 96h19.8v33.3h-19.8z"/>
		<path fill-rule="evenodd" class="s0" d="m116.4 96h4.6v33.3h-4.6z"/>
		<path fill-rule="evenodd" class="s1" d="m74.2 101.6h26v27.7h-26z"/>
		<path fill-rule="evenodd" class="s0" d="m100.2 101.6h6.7v27.7h-6.7z"/>
		<path fill-rule="evenodd" class="s1" d="m67.4 97.4h19.5v31.9h-19.5z"/>
		<path fill-rule="evenodd" class="s0" d="m86.9 97.4h5.7v31.9h-5.7z"/>
		<path fill-rule="evenodd" class="s1" d="m62.2 101.6h19v27.7h-19z"/>
		<path fill-rule="evenodd" class="s3" d="m81.2 101.6h3.7v27.7h-3.7z"/>
		<path fill-rule="evenodd" class="s1" d="m244 139h-204v-9.7h204z"/>
		<path fill-rule="evenodd" class="s2" d="m76.6 139.2h11.3l-8.2 12.4h-3.1v-12.4z"/>
		<path fill-rule="evenodd" class="s2" d="m75 139.2h1.6v12.4h-1.6z"/>
		<path fill-rule="evenodd" class="s2" d="m203.3 139.2h11.3l-8.2 12.4h-3.1v-12.4z"/>
		<path fill-rule="evenodd" class="s2" d="m201.7 139.2h1.6v12.4h-1.6z"/>
		<path fill-rule="evenodd" class="s1" d="m256.2 147.5h204v9.7h-204z"/>
		<path fill-rule="evenodd" class="s2" d="m423.6 169.8h-3l-8.3-12.4h11.3v12.4z"/>
		<path fill-rule="evenodd" class="s2" d="m423.6 157.4h1.7v12.4h-1.7z"/>
		<path fill-rule="evenodd" class="s2" d="m296.9 169.8h-3l-8.3-12.4h11.3v12.4z"/>
		<path fill-rule="evenodd" class="s2" d="m296.9 157.4h1.7v12.4h-1.7z"/>
		<path class="s3" d="m197.4 109.9q0.1-0.5 0-1.1 0-0.5-0.1-1-0.1-0.6-0.2-1.1-0.1-0.5-0.3-1l3.7-3.3-2.3-4.1-4.7 1.6q-0.7-0.7-1.6-1.4-0.8-0.7-1.7-1.2-1-0.6-2-1-1-0.4-2-0.6l-1-4.8h-4.7l-1 4.8q-1 0.2-2 0.6-1 0.4-2 1-0.9 0.5-1.7 1.2-0.9 0.7-1.6 1.4l-4.7-1.6-2.3 4.1 3.7 3.3q-0.3 1-0.5 2.1-0.1 1-0.1 2.1 0 1.1 0.1 2.1 0.2 1.1 0.5 2.1l-3.7 3.3 2.3 4 4.7-1.6q0.7 0.8 1.6 1.5 0.8 0.7 1.7 1.2 1 0.5 2 0.9 1 0.4 2 0.7l1 4.8h4.7l1-4.8q1-0.3 2-0.7 1-0.4 2-0.9 0.9-0.5 1.7-1.2 0.9-0.7 1.6-1.5l4.7 1.6 2.3-4-3.7-3.3q0.2-0.5 0.3-1 0.1-0.5 0.2-1.1 0.1-0.5 0.1-1 0.1-0.6 0-1.1zm-14.5 7.8c-3.1 0.1-5.8-1.8-7-4.6-1.2-2.9-0.5-6.1 1.6-8.3 2.2-2.1 5.5-2.8 8.3-1.6 2.8 1.2 4.7 3.9 4.7 7q0 1.5-0.6 2.9-0.6 1.4-1.7 2.4-1 1.1-2.4 1.7-1.4 0.5-2.9 0.5z"/>
		<path class="s3" d="m222.7 112.3q-0.2-0.3-0.4-0.6-0.2-0.2-0.4-0.5-0.2-0.3-0.5-0.5-0.2-0.3-0.5-0.5l1-3.1-2.7-1.5-2.1 2.5q-0.7-0.2-1.4-0.3-0.7-0.1-1.4 0-0.7 0-1.4 0.1-0.7 0.1-1.3 0.3l-2.2-2.3-2.7 1.6 1.1 3q-0.5 0.5-0.9 1.1-0.4 0.5-0.8 1.2-0.3 0.6-0.5 1.3-0.3 0.6-0.4 1.3l-3.2 0.7 0.1 3.1 3.2 0.6q0.2 0.6 0.5 1.3 0.2 0.6 0.6 1.2 0.4 0.7 0.8 1.2 0.5 0.5 1 1l-1 3.1 2.7 1.5 2.1-2.5q0.7 0.2 1.4 0.3 0.7 0 1.4 0 0.7 0 1.4-0.1 0.7-0.1 1.4-0.3l2.2 2.3 2.6-1.6-1.1-3q0.5-0.5 0.9-1.1 0.4-0.6 0.8-1.2 0.3-0.6 0.5-1.3 0.3-0.6 0.4-1.3l3.2-0.7-0.1-3.1-3.2-0.6q-0.1-0.3-0.2-0.6-0.1-0.4-0.2-0.7-0.2-0.3-0.3-0.6-0.2-0.4-0.4-0.7zm-5.5 9.5c-1.7 1-3.9 0.9-5.5-0.3-1.7-1.1-2.4-3.2-1.9-5.2 0.4-1.9 2-3.4 4-3.7 2-0.4 4 0.6 5.1 2.3q0.5 0.8 0.7 1.8 0.1 1-0.1 2-0.3 0.9-0.8 1.7-0.6 0.8-1.5 1.4z"/>
	</g>
	<g id="freepik--Desk--inject-2">
		<g id="freepik--Group--inject-2">
			<path fill-rule="evenodd" class="s8" d="m46.6 273.1h407.6v5.1h-407.6z"/>
			<path fill-rule="evenodd" class="s8" d="m70.8 276.8v122.3h3.2l4-122.3h-7.2z"/>
			<path fill-rule="evenodd" class="s8" d="m108.4 280.8v113.3h3.2l4-113.3h-7.2z"/>
			<path fill-rule="evenodd" class="s9" d="m108.4 280.8v113.3h3.2l4-113.3h-7.2z"/>
			<path fill-rule="evenodd" class="s8" d="m431.4 276.8v122.3h-3.2l-4-122.3h7.2z"/>
			<path fill-rule="evenodd" class="s8" d="m393.8 280.8v113.3h-3.2l-4-113.3h7.2z"/>
			<path fill-rule="evenodd" class="s9" d="m393.8 280.8v113.3h-3.2l-4-113.3h7.2z"/>
			<path fill-rule="evenodd" class="s8" d="m438.6 283.7h-375.3l-8.3-5.4h391.9l-8.3 5.4z"/>
			<path fill-rule="evenodd" class="s9" d="m438.6 283.7h-375.3l-8.3-5.4h391.9l-8.3 5.4z"/>
		</g>
	</g>
	<g id="freepik--Beverages--inject-2">
		<path class="s8" d="m73.3 257.4v4q0.1 0.2 0.1 0.5 0 0.2 0.1 0.4 0.1 0.3 0.3 0.5 0.1 0.2 0.3 0.4l3.2 3.1q0.1 0.1 0.2 0.2 0.1 0.1 0.2 0.2 0.1 0.1 0.3 0.1 0.1 0.1 0.3 0.1 0.4 1.1 1.2 2 0.8 0.8 1.8 1.5 0.9 0.6 2.1 0.9 1.1 0.3 2.2 0.3h1.2q1.6 0.1 3.2-0.6 1.5-0.6 2.6-1.7 1.2-1.2 1.8-2.7 0.6-1.5 0.6-3.1v-9.4h-17.5v0.8h-1.7q-0.4 0-0.9 0.2-0.5 0.2-0.8 0.5-0.4 0.4-0.6 0.8-0.1 0.5-0.2 1zm2 0q0.1-0.1 0.1-0.2 0-0.1 0.1-0.2 0.1 0 0.2-0.1 0.1 0 0.1 0h1.7v6.6q0 0.1 0 0.2l-2-2q0 0 0 0-0.1-0.1-0.1-0.1 0-0.1 0-0.1 0-0.1 0-0.1z"/>
		<path class="s10" d="m73.3 257.4v4q0.1 0.2 0.1 0.5 0 0.2 0.1 0.4 0.1 0.3 0.3 0.5 0.1 0.2 0.3 0.4l3.2 3.1q0.1 0.1 0.2 0.2 0.1 0.1 0.2 0.2 0.1 0.1 0.3 0.1 0.1 0.1 0.3 0.1 0.4 1.1 1.2 2 0.8 0.8 1.8 1.5 0.9 0.6 2.1 0.9 1.1 0.3 2.2 0.3h1.2q1.6 0.1 3.2-0.6 1.5-0.6 2.6-1.7 1.2-1.2 1.8-2.7 0.6-1.5 0.6-3.1v-9.4h-17.5v0.8h-1.7q-0.4 0-0.9 0.2-0.5 0.2-0.8 0.5-0.4 0.4-0.6 0.8-0.1 0.5-0.2 1zm2 0q0.1-0.1 0.1-0.2 0-0.1 0.1-0.2 0.1 0 0.2-0.1 0.1 0 0.1 0h1.7v6.6q0 0.1 0 0.2l-2-2q0 0 0 0-0.1-0.1-0.1-0.1 0-0.1 0-0.1 0-0.1 0-0.1z"/>
		<path class="s8" d="m99.1 273h-25.1q-0.4 0-0.8-0.2-0.5-0.1-0.8-0.3-0.4-0.1-0.8-0.4-0.3-0.3-0.6-0.6h31.1q-0.3 0.3-0.6 0.6-0.4 0.2-0.7 0.4-0.4 0.2-0.8 0.3-0.4 0.2-0.9 0.2z"/>
		<path class="s10" d="m99.1 273h-25.1q-0.4 0-0.8-0.2-0.5-0.1-0.8-0.3-0.4-0.1-0.8-0.4-0.3-0.3-0.6-0.6h31.1q-0.3 0.3-0.6 0.6-0.4 0.2-0.7 0.4-0.4 0.2-0.8 0.3-0.4 0.2-0.9 0.2z"/>
		<path class="s8" d="m437.4 260.8c-0.2-4-3.2-5-7.1-5.4v-1.5q0-0.1-0.1-0.2 0-0.1-0.1-0.2-0.1-0.1-0.2-0.2-0.2 0-0.3 0h-13.6q-0.1 0-0.2 0-0.2 0.1-0.3 0.2-0.1 0.1-0.1 0.2-0.1 0.1-0.1 0.2v18.9h15v-2c3.9-0.5 6.9-6.1 7.1-10zm-7.1 7.5v-10.5c2.9 0.4 4.9 0.8 4.4 3.7-0.3 2.4-2.1 6.5-4.4 6.8z"/>
		<g style="opacity: .5">
			<path class="s6" d="m437.4 260.8c-0.2-4-3.2-5-7.1-5.4v-1.5q0-0.1-0.1-0.2 0-0.1-0.1-0.2-0.1-0.1-0.2-0.2-0.2 0-0.3 0h-13.6q-0.1 0-0.2 0-0.2 0.1-0.3 0.2-0.1 0.1-0.1 0.2-0.1 0.1-0.1 0.2v18.9h15v-2c3.9-0.5 6.9-6.1 7.1-10zm-7.1 7.5v-10.5c2.9 0.4 4.9 0.8 4.4 3.7-0.3 2.4-2.1 6.5-4.4 6.8z"/>
		</g>
	</g>
	<g id="freepik--Device--inject-2">
		<path fill-rule="evenodd" class="s8" d="m244.1 248.7h11.8v24h-11.8z"/>
		<path fill-rule="evenodd" class="s10" d="m244.1 248.7h11.8v24h-11.8z"/>
		<path fill-rule="evenodd" class="s8" d="m261.2 273.1h-22.3l5.4-4.8h11.5l5.4 4.8z"/>
		<path fill-rule="evenodd" class="s10" d="m261.2 273.1h-22.3l5.4-4.8h11.5l5.4 4.8z"/>
		<path fill-rule="evenodd" class="s8" d="m310.3 265.4h-55.8l10.1 7.7h55.8l-10.1-7.7z"/>
		<path fill-rule="evenodd" class="s11" d="m310.3 265.4h-55.8l10.1 7.7h55.8l-10.1-7.7z"/>
		<path fill-rule="evenodd" class="s8" d="m255.8 273.1l-1.3-7.7 10.1 7.7h-8.8z"/>
		<path fill-rule="evenodd" class="s9" d="m255.8 273.1l-1.3-7.7 10.1 7.7h-8.8z"/>
		<path fill-rule="evenodd" class="s8" d="m198.9 192h101.6c1.1 0 2 0.9 2 2v62.3c0 1.1-0.9 1.9-2 1.9h-101.6c-1.1 0-1.9-0.8-1.9-1.9v-62.3c0-1.1 0.8-2 1.9-2z"/>
		<path fill-rule="evenodd" class="s9" d="m200.8 196.2h97.7v57.7h-97.7z"/>
		<path fill-rule="evenodd" class="s12" d="m246.1 208h49.3v34h-49.3z"/>
		<path fill-rule="evenodd" class="s8" d="m246.1 208h49.3v3.2h-49.3z"/>
		<path class="s6" d="m255.1 226.8l8.1 4.5q0.1 0 0.2 0.1 0.1 0.1 0.2 0.1 0.1 0.1 0.2 0.2 0.1 0.1 0.2 0.2 0.1 0.1 0.1 0.1 0 0.1 0.1 0.2 0 0.1 0 0.2 0 0.1 0 0.2 0 0.1 0 0.2 0 0.1-0.1 0.3 0 0.1-0.1 0.2-0.1 0.1-0.2 0.2-0.1 0.1-0.2 0.1-0.1 0.1-0.2 0.2-0.1 0-0.2 0-0.1 0.1-0.2 0.1-0.2-0.1-0.3-0.1-0.1 0-0.3-0.1-0.1 0-0.2-0.1-0.1 0-0.2-0.1l-10.4-5.8q-0.3-0.1-0.4-0.4-0.2-0.2-0.2-0.5 0-0.3 0.2-0.5 0.1-0.3 0.4-0.4l10.4-5.8q0.1 0 0.2-0.1 0.1 0 0.2-0.1 0.2 0 0.3-0.1 0.1 0 0.3 0 0.1 0 0.2 0 0.1 0 0.2 0.1 0.2 0 0.3 0.1 0.1 0.1 0.1 0.2 0.1 0 0.2 0.2 0.1 0.1 0.1 0.2 0.1 0.1 0.1 0.2 0 0.1 0 0.3 0 0.1 0 0.1 0 0.1 0 0.2-0.1 0.1-0.1 0.2 0 0.1-0.1 0.1-0.1 0.1-0.2 0.2-0.1 0.1-0.2 0.2-0.1 0.1-0.2 0.1-0.1 0.1-0.2 0.2z"/>
		<path class="s6" d="m275.9 218.5l-8 17.2q-0.1 0.1-0.1 0.2-0.1 0.1-0.2 0.2 0 0.1-0.1 0.2-0.1 0.1-0.2 0.2-0.1 0.1-0.1 0.1-0.1 0.1-0.2 0.1-0.1 0-0.2 0.1-0.1 0-0.2 0-0.2 0-0.3-0.1-0.1 0-0.2 0-0.1-0.1-0.2-0.1-0.1-0.1-0.2-0.2-0.1-0.1-0.2-0.2 0-0.1-0.1-0.2 0-0.1-0.1-0.2 0-0.1 0-0.2 0-0.2 0-0.3 0.1-0.1 0.1-0.2 0-0.2 0.1-0.3 0-0.1 0.1-0.2l8-17.2q0.1-0.1 0.1-0.2 0.1-0.1 0.1-0.2 0.1-0.1 0.2-0.2 0.1-0.1 0.1-0.2 0.1-0.1 0.2-0.1 0.1-0.1 0.2-0.1 0.1-0.1 0.2-0.1 0.1 0 0.2 0 0.1 0 0.3 0 0.1 0.1 0.2 0.1 0.1 0 0.2 0.1 0.1 0.1 0.2 0.2 0.1 0 0.1 0.1 0.1 0.1 0.1 0.2 0.1 0.1 0.1 0.3 0 0.1 0 0.2 0 0.1 0 0.2 0 0.2 0 0.3-0.1 0.1-0.1 0.3-0.1 0.1-0.1 0.2z"/>
		<path class="s6" d="m285.9 226.8l-8-4.5q-0.2 0-0.3-0.1-0.1 0-0.2-0.1-0.1-0.1-0.2-0.2-0.1-0.1-0.2-0.2 0 0-0.1-0.1 0-0.1 0-0.2 0-0.1-0.1-0.2 0 0 0-0.1 0-0.2 0.1-0.3 0-0.1 0-0.2 0.1-0.1 0.2-0.2 0-0.2 0.1-0.2 0.1-0.1 0.2-0.2 0.1-0.1 0.2-0.1 0.1-0.1 0.3-0.1 0.1 0 0.2 0 0.1 0 0.3 0 0.1 0.1 0.2 0.1 0.2 0.1 0.3 0.1 0.1 0.1 0.2 0.1l10.4 5.8q0.3 0.1 0.4 0.4 0.2 0.2 0.2 0.5 0 0.3-0.2 0.5-0.1 0.3-0.4 0.4l-10.4 5.8q-0.1 0.1-0.2 0.1-0.1 0.1-0.3 0.1-0.1 0.1-0.2 0.1-0.2 0-0.3 0.1-0.1 0-0.2-0.1-0.2 0-0.3 0-0.1-0.1-0.2-0.2-0.1 0-0.2-0.1-0.1-0.1-0.1-0.2-0.1-0.1-0.2-0.2 0-0.2 0-0.3-0.1-0.1-0.1-0.2 0-0.1 0-0.2 0.1-0.1 0.1-0.2 0-0.1 0.1-0.2 0 0 0-0.1 0.1-0.1 0.2-0.2 0.1-0.1 0.2-0.2 0.1 0 0.2-0.1 0.1-0.1 0.3-0.1z"/>
		<path fill-rule="evenodd" class="s6" d="m204.8 201.5h3.3v3.3h-3.3z"/>
		<path fill-rule="evenodd" class="s6" d="m204.8 210.2h3.3v3.3h-3.3z"/>
		<path fill-rule="evenodd" class="s6" d="m204.8 218.8h3.3v3.3h-3.3z"/>
		<path fill-rule="evenodd" class="s6" d="m204.8 227.4h3.3v3.4h-3.3z"/>
		<path fill-rule="evenodd" class="s6" d="m204.8 236.1h3.3v3.3h-3.3z"/>
		<path fill-rule="evenodd" class="s6" d="m204.8 244.7h3.3v3.4h-3.3z"/>
		<path fill-rule="evenodd" class="s6" d="m211.3 202.3h13.3v1h-13.3z"/>
		<path fill-rule="evenodd" class="s6" d="m214.4 210.9h4.8v1h-4.8z"/>
		<path fill-rule="evenodd" class="s6" d="m235.1 220.6h4.7v1h-4.7z"/>
		<path fill-rule="evenodd" class="s6" d="m214.4 228.3h4.8v1h-4.8z"/>
		<path fill-rule="evenodd" class="s6" d="m221.3 228.3h4.7v1h-4.8z"/>
		<path fill-rule="evenodd" class="s6" d="m221.3 220.6h12.1v1h-12.2z"/>
		<path fill-rule="evenodd" class="s6" d="m228.3 228.3h8v1h-8z"/>
		<path fill-rule="evenodd" class="s6" d="m228.3 246.9h4.7v1h-4.7z"/>
		<path fill-rule="evenodd" class="s6" d="m235.1 246.9h4.8v1h-4.8z"/>
		<path fill-rule="evenodd" class="s6" d="m242.2 246.9h2.6v1h-2.6z"/>
		<path fill-rule="evenodd" class="s6" d="m221.5 210.9h14.8v1h-14.8z"/>
		<path fill-rule="evenodd" class="s6" d="m221.3 237.4h4.7v1h-4.8z"/>
		<path fill-rule="evenodd" class="s6" d="m227.6 237.4h2.7v1h-2.7z"/>
		<path fill-rule="evenodd" class="s6" d="m232.4 237.4h7.8v1h-7.8z"/>
	</g>
	<g id="freepik--speech-code--inject-2">
		<path class="s8" d="m241.4 164.5c-0.2 12.1-12.8 22.3-28.1 22.7q-1.7 0-3.5-0.1-1.7-0.2-3.4-0.5-1.8-0.3-3.4-0.8-1.7-0.5-3.3-1.2c-1.6 3.8-4.8 7.1-14.1 8.5 9.7-7.4 4.4-13.8 2.2-19.4q-0.4-0.9-0.8-1.8-0.3-1-0.5-2-0.2-0.9-0.3-1.9-0.1-1-0.1-2c0.3-12.1 12.8-22.3 28.1-22.7 15.3-0.4 27.5 9.1 27.2 21.2z"/>
		<path fill-rule="evenodd" class="s6" d="m200.8 151.8h13.3v1h-13.3z"/>
		<path fill-rule="evenodd" class="s6" d="m203.9 160.5h4.7v1h-4.7z"/>
		<path fill-rule="evenodd" class="s6" d="m224.5 170.2h4.8v1h-4.8z"/>
		<path fill-rule="evenodd" class="s6" d="m203.9 177.9h4.7v1h-4.7z"/>
		<path fill-rule="evenodd" class="s6" d="m210.7 177.9h4.8v1h-4.8z"/>
		<path fill-rule="evenodd" class="s6" d="m210.7 170.2h12.1v1h-12.1z"/>
		<path fill-rule="evenodd" class="s6" d="m217.8 177.9h7.9v1h-7.9z"/>
		<path fill-rule="evenodd" class="s6" d="m211 160.5h14.8v1h-14.8z"/>
	</g>
	<g id="freepik--character-2--inject-2">
		<path fill-rule="evenodd" class="s13" d="m299.2 393.8l-7.3-2.2 1.7-17.9 7.3 2.2-1.7 17.8z"/>
		<path fill-rule="evenodd" class="s14" d="m301.5 371.8l-7.3-2.1-1 10 7.4 1.4 0.9-9.3z"/>
		<path class="s8" d="m342.3 283.4c0 0-50.1 4.2-48.9 26 1 17.8 3.7 13-1.5 66l12.6 0.7c0 0 12.8-43.4 11.1-60.6 14.1 0 46.5 1.3 51.2-11.5q0.8-2.4 1.5-4.9 0.6-2.5 1.1-5 0.4-2.6 0.6-5.1 0.2-2.6 0.1-5.2z"/>
		<path fill-rule="evenodd" class="s15" d="m306.5 378.5l-16.5-2.8 0.3-7.3 17 3.8-0.8 6.3z"/>
		<path class="s15" d="m291.1 388.6l8.4 1.6q0.2 0.1 0.3 0.1 0.1 0.1 0.1 0.2 0.1 0.1 0.1 0.2 0 0.1 0 0.2l-0.7 8q0 0.3-0.1 0.6-0.1 0.2-0.4 0.4-0.2 0.2-0.5 0.3-0.2 0.1-0.5 0.1c-2.9-0.7-4.3-1.2-8-1.9-2.3-0.4-7.5-1.5-10.7-1.9-3.1-0.3-2.8-4.1-1.4-4.2 6.2-0.9 9.7-1.9 12.1-3.4q0.1-0.1 0.3-0.2 0.1-0.1 0.3-0.1 0.2 0 0.4 0 0.2-0.1 0.3 0z"/>
		<path class="s8" d="m287.4 390q0.2 0 0.4 0.1 0.3 0 0.5 0 0.3 0 0.5 0 0.3 0 0.6 0 0 0 0 0 0-0.1 0-0.1 0.1 0 0.1 0 0 0 0-0.1 0 0 0 0 0 0 0 0 0-0.1 0-0.1 0 0 0 0c-0.2-0.2-2.1-2-3.1-1.8q-0.1 0-0.1 0-0.1 0-0.2 0.1 0 0.1-0.1 0.1 0 0.1-0.1 0.2 0 0.1 0 0.2-0.1 0.2-0.1 0.3 0 0.1 0.1 0.2 0 0.2 0.1 0.3 0.1 0.1 0.3 0.2 0.1 0.1 0.3 0.2 0.2 0.1 0.4 0.1 0.2 0.1 0.4 0.1zm1.6-0.3c-1.4 0-2.4-0.1-2.7-0.5q0-0.1-0.1-0.2 0-0.1 0-0.2 0 0 0-0.1 0.1-0.1 0.1-0.2 0 0 0-0.1 0.1 0 0.1 0 0 0 0.1-0.1 0 0 0 0c0.5-0.1 1.7 0.7 2.5 1.4z"/>
		<path class="s8" d="m289.4 390.1q0.1 0 0.1-0.1 0 0 0 0 0 0 0 0 0.1 0 0.1-0.1c0 0 0.5-2.2-0.1-3q-0.1-0.1-0.2-0.2 0-0.1-0.1-0.1-0.1 0-0.2-0.1-0.1 0-0.2 0-0.1 0-0.3 0-0.1 0-0.2 0.1-0.1 0-0.1 0.1-0.1 0.1-0.1 0.2c-0.4 0.8 0.5 2.6 1.2 3.1q0 0 0 0 0 0.1 0 0.1 0 0 0 0 0 0 0.1 0zm-0.6-3.2q0.1 0 0.1 0 0.1 0 0.1 0 0.1 0.1 0.1 0.1 0.1 0 0.1 0.1 0.1 0.3 0.2 0.6 0 0.3 0 0.6 0 0.3 0 0.6 0 0.3-0.1 0.6-0.2-0.2-0.4-0.5-0.2-0.3-0.3-0.6-0.1-0.3-0.2-0.7 0-0.3 0-0.7c0-0.1 0.1-0.2 0.4-0.1z"/>
		<path fill-rule="evenodd" class="s13" d="m266.7 396.5l-7-3.1 4.8-17.1 7 3.1-4.8 17.1z"/>
		<path fill-rule="evenodd" class="s14" d="m272.6 375l-6.9-3.1-2.5 8.8 7 3.1 2.4-8.8z"/>
		<path class="s8" d="m327.4 283.4c-0.3 0-56.2 5.7-56.3 24.7-0.1 31.3-9 67.2-9 67.2l11 5.5c0 0 19.2-38.9 18.9-63.4 15.4-4.4 55.1 3 59.8-9.7 3.9-10.4 1.8-24.3 1.8-24.3z"/>
		<path fill-rule="evenodd" class="s15" d="m274.9 382.4l-14.8-6.7 1.2-6 15.6 5.4-2 7.3z"/>
		<path class="s15" d="m260.4 387.7l8.5 1.7q0.1 0 0.2 0.1 0.1 0.1 0.1 0.2 0.1 0.1 0.1 0.2 0.1 0.2 0 0.3l-0.6 8.7c-0.1 1-0.8 1.6-1.6 1.5-2.9-0.7-4.3-1.2-8-2-2.2-0.5-8.4-2-11.6-2.8-3.1-0.8-2.4-4.8-1-4.8 6.2-0.1 10.2-1.1 12.6-2.9q0.1-0.1 0.3-0.1 0.2-0.1 0.3-0.1 0.2-0.1 0.4-0.1 0.1 0 0.3 0.1z"/>
		<path class="s8" d="m257 389.6q0.2-0.2 0.4-0.3 0.2-0.1 0.5-0.3 0.2-0.1 0.4-0.3 0.2-0.1 0.3-0.3 0.1 0 0.1 0 0-0.1 0-0.1 0 0 0 0 0-0.1 0-0.1 0 0 0 0 0 0 0-0.1-0.1 0-0.1 0 0 0 0 0c-0.3 0-2.9-0.4-3.6 0.4q0 0-0.1 0.1 0 0.1 0 0.2 0 0 0 0.1 0 0.1 0 0.2 0 0.1 0.1 0.2 0 0.2 0.1 0.3 0.1 0.1 0.2 0.1 0.1 0.1 0.2 0.2 0.2 0 0.4 0 0.2 0 0.4-0.1 0.2 0 0.4-0.1 0.1 0 0.3-0.2zm1.1-1.1c-1.1 0.8-2 1.2-2.4 1.1q-0.1 0-0.2-0.1-0.1 0-0.1-0.1-0.1-0.1-0.1-0.2 0 0 0-0.1 0-0.1 0-0.1 0-0.1 0-0.1 0 0 0-0.1 0 0 0 0c0.3-0.4 1.7-0.4 2.8-0.3z"/>
		<path class="s8" d="m258.6 388.4h0.1q0-0.1 0-0.1 0 0 0 0 0 0 0-0.1 0 0 0 0c-0.1-0.1-0.9-2.1-1.9-2.4q-0.1-0.1-0.2-0.1-0.1 0-0.2 0-0.1 0-0.2 0.1-0.1 0-0.2 0.1-0.1 0-0.2 0.1-0.1 0.1-0.1 0.2 0 0.1-0.1 0.2 0 0.1 0.1 0.2c0.2 0.9 1.9 1.8 2.8 1.8zm-2.3-2.3q0 0 0.1 0 0 0 0.1 0 0 0 0.1 0 0 0 0.1 0 0.3 0.2 0.5 0.4 0.2 0.2 0.4 0.5 0.2 0.2 0.4 0.5 0.1 0.3 0.2 0.6-0.3-0.1-0.6-0.2-0.3-0.2-0.6-0.3-0.3-0.2-0.5-0.5-0.3-0.2-0.5-0.5c0-0.1 0-0.2 0.2-0.4z"/>
		<path class="s13" d="m346.4 222.9c1.5 3.2 2.7 6.2 3.9 9.4 1.2 3.1 2.2 6.3 3.2 9.5q1.5 4.9 2.6 10 0.3 1.4 0.5 2.7 0.2 1.4 0.3 2.7 0.2 1.4 0.2 2.8 0.1 1.3 0.1 2.7 0 0.8-0.1 1.6 0 0.8-0.1 1.6-0.2 0.8-0.3 1.6-0.2 0.8-0.4 1.5-0.2 0.5-0.4 1-0.2 0.4-0.4 0.9-0.2 0.4-0.4 0.9-0.3 0.4-0.5 0.8-0.2 0.2-0.3 0.5-0.2 0.2-0.4 0.4-0.2 0.2-0.4 0.4-0.2 0.2-0.4 0.4l-0.4 0.5c-0.2 0.2-0.5 0.4-0.7 0.5q-0.2 0.2-0.4 0.3-0.1 0.1-0.3 0.2-0.2 0-0.3 0.1-0.2 0.1-0.4 0.2-0.2 0.1-0.5 0.2-0.3 0.1-0.5 0.2-0.3 0.1-0.6 0.1-0.3 0.1-0.5 0.2-0.2 0-0.5 0.1-0.2 0-0.4 0-0.2 0.1-0.5 0.1-0.2 0-0.4 0-0.4 0.1-0.8 0.1-0.3 0-0.7 0-0.4 0-0.8 0-0.4 0-0.8-0.1-0.6 0-1.3 0-0.7-0.1-1.3-0.2-0.7-0.1-1.4-0.1-0.7-0.1-1.3-0.3-2.5-0.4-5-1-2.4-0.6-4.9-1.3-2.4-0.7-4.8-1.5-2.4-0.8-4.7-1.7l1.4-5.5c6.4 0.7 12.8 1.5 18.9 1.8 1.6 0 3 0.1 4.4 0q0.3 0 0.5 0 0.2 0 0.4-0.1 0.3 0 0.5 0 0.2-0.1 0.5-0.1c0.5-0.1 0.9-0.3 0.7-0.3q0 0 0 0.1-0.1 0-0.1 0 0 0-0.1 0 0 0 0 0.1-0.1 0-0.1 0-0.1 0-0.1 0.1 0 0-0.1 0 0 0 0 0.1 0 0 0-0.1 0 0 0 0 0 0 0 0 0.1-0.1 0.1-0.1 0-0.1 0.1-0.2 0-0.1 0-0.2 0.1-0.1 0.1-0.3 0-0.1 0.1-0.2 0.1-0.4 0.1-0.8 0.1-0.4 0.1-0.8 0-0.5 0-0.9 0.1-0.4 0-0.8 0-1.1-0.1-2.2-0.1-1-0.3-2.1-0.2-1.1-0.4-2.1-0.2-1.1-0.4-2.1c-0.7-3-1.6-5.9-2.6-8.9q-1.4-4.5-3.1-8.9c-1.1-3-2.3-5.9-3.5-8.7z"/>
		<path class="s13" d="m323.1 266.9l-6.7-3.8-3.3 7.2c0 0 7.8 3.3 9.4 1.2z"/>
		<path fill-rule="evenodd" class="s13" d="m311.1 264.5l-3.1 4.8 5.1 1 3.3-7.2-5.3 1.4z"/>
		<path class="s13" d="m330.9 228.6c-1.2 3.2-2.6 6.3-4 9.4-1.4 3-2.8 6.1-4.3 9.1q-1.1 2.3-2.3 4.6-1.1 2.3-2.4 4.6-1.2 2.2-2.6 4.4-1.3 2.2-2.7 4.4c-1 1.5-2 3-3.1 4.4q-0.8 1.1-1.8 2.3c-0.4 0.3-0.7 0.7-1.1 1.1l-0.6 0.6-0.3 0.3q-0.4 0.3-0.8 0.5-0.4 0.3-0.8 0.5-0.4 0.3-0.8 0.4-0.5 0.2-0.9 0.3-0.2 0.1-0.5 0.1-0.2 0.1-0.5 0.2-0.2 0-0.5 0.1-0.2 0-0.4 0-0.5 0.1-0.9 0.1-0.4 0-0.8 0.1-0.4 0-0.8 0-0.4 0-0.8 0-0.7-0.1-1.4-0.1-0.7-0.1-1.3-0.1-0.7-0.1-1.4-0.2-0.7-0.1-1.4-0.2-2.6-0.4-5.1-1-2.5-0.6-5-1.3-2.4-0.7-4.9-1.5-2.4-0.9-4.8-1.8l1.4-5.5c6.5 0.8 13.1 1.6 19.3 1.8q0.6 0.1 1.1 0.1 0.6 0 1.1 0 0.6 0 1.1-0.1 0.6 0 1.1 0 0.3 0 0.5-0.1 0.2 0 0.4 0 0.2-0.1 0.4-0.1 0.3 0 0.5-0.1 0 0 0.1 0 0.1-0.1 0.2-0.1 0 0 0.1 0 0.1-0.1 0.1-0.1c0.1 0 0-0.1-0.2 0.1q-0.1 0-0.1 0-0.1 0.1-0.1 0.1 0 0-0.1 0 0 0.1 0 0.1l0.1-0.1 0.3-0.3c0.1-0.2 0.4-0.5 0.6-0.7q0.6-0.8 1.2-1.7c0.9-1.2 1.7-2.5 2.5-3.9 1.6-2.7 3.1-5.5 4.5-8.4q2.2-4.3 4.3-8.8c2.7-5.9 5.4-12 8-17.9z"/>
		<path class="s13" d="m276.2 265.8l-6.7-3.8-3.3 7.2c0 0 7.8 3.2 9.4 1.2z"/>
		<path fill-rule="evenodd" class="s13" d="m264.2 263.4l-3.1 4.8 5.1 1 3.3-7.2-5.3 1.5z"/>
		<path class="s13" d="m348.1 193.1l-4.3 4.9-6.4 6.7 0.5 1.2q0.2 0.5 0.3 1 0.2 0.5 0.3 1 0.1 0.4 0.1 0.9 0.1 0.5 0.1 1c0.2 2.7-0.1 5-4.3 6.8 0 0-4.5 5.8 6.1 4.2 10.6-1.6 12.2-7.1 12.2-7.1-4.7-3.3-5-14.4-4.6-20.6z"/>
		<path class="s15" d="m326.6 187.6c0 0.7-0.4 1.2-0.8 1.2-0.4 0.1-0.8-0.5-0.8-1.1 0-0.7 0.3-1.2 0.8-1.3 0.4 0 0.7 0.5 0.8 1.2z"/>
		<path class="s15" d="m328.8 185.1q-0.1 0-0.1 0-0.1 0-0.1 0-0.1 0-0.1-0.1 0 0-0.1 0-0.1-0.4-0.4-0.6-0.3-0.3-0.6-0.5-0.3-0.2-0.6-0.3-0.4-0.1-0.8-0.2 0 0-0.1 0-0.1 0-0.1-0.1-0.1-0.1-0.1-0.1 0-0.1-0.1-0.2 0.1-0.1 0.1-0.1 0-0.1 0.1-0.2 0 0 0.1 0 0.1-0.1 0.1-0.1 0.5 0.1 1 0.2 0.4 0.2 0.8 0.4 0.4 0.3 0.7 0.6 0.4 0.3 0.6 0.7 0 0.1 0.1 0.2 0 0.1 0 0.1-0.1 0.1-0.1 0.2 0 0-0.1 0.1 0 0-0.1 0 0 0 0 0 0 0-0.1 0 0 0 0 0z"/>
		<path class="s16" d="m326.3 188q-0.2 0.7-0.4 1.3-0.3 0.7-0.6 1.3-0.3 0.7-0.6 1.3-0.3 0.6-0.7 1.2 0.3 0.2 0.7 0.3 0.3 0.1 0.7 0.1 0.3 0.1 0.7 0 0.3-0.1 0.6-0.2z"/>
		<path class="s13" d="m348.7 184.3c-0.4 8.1-0.2 13-4.3 17.3-1.3 1.4-2.9 2.5-4.8 3-1.9 0.6-3.8 0.6-5.7 0.1-1.9-0.4-3.6-1.4-4.9-2.8-1.4-1.4-2.3-3.1-2.8-5-1.8-7.3-0.9-19.4 7-23 1.7-0.9 3.6-1.2 5.5-1.1 1.9 0.1 3.7 0.7 5.3 1.8 1.5 1 2.8 2.5 3.6 4.2 0.9 1.7 1.2 3.6 1.1 5.5z"/>
		<path class="s15" d="m352.4 187q-0.5 1.3-1 2.5-0.6 1.3-1.2 2.5-0.7 1.2-1.5 2.3-0.7 1.1-1.6 2.2l-10.6 2c0 0-8.4-3.5-6.2-9.3-1.4-1.2-0.9-4.9 0.1-6.9q0.6 0.5 1.4 0.7 0.7 0.3 1.5 0.2 0.8 0 1.5-0.3 0.7-0.3 1.3-0.8 0.5 0.8 1.3 1.2 0.7 0.5 1.6 0.6 1 0.1 1.8-0.3 0.8-0.3 1.5-1 0.6 0.7 1.6 1 0.9 0.3 1.8 0.1 1-0.1 1.8-0.7 0.8-0.5 1.2-1.4 0.5 0.3 1.1 0.5 0.5 0.1 1.1 0.1 0.6-0.1 1.1-0.3 0.5-0.2 1-0.6l0.1-0.1q0.1 0.7 0.1 1.5 0 0.7-0.1 1.4-0.1 0.8-0.3 1.5-0.2 0.7-0.4 1.4z"/>
		<path class="s17" d="m352.4 187q-0.5 1.3-1 2.5-0.6 1.3-1.2 2.5-0.7 1.2-1.5 2.3-0.7 1.1-1.6 2.2l-10.6 2c0 0-8.4-3.5-6.2-9.3-1.4-1.2-0.9-4.9 0.1-6.9q0.6 0.5 1.4 0.7 0.7 0.3 1.5 0.2 0.8 0 1.5-0.3 0.7-0.3 1.3-0.8 0.5 0.8 1.3 1.2 0.7 0.5 1.6 0.6 1 0.1 1.8-0.3 0.8-0.3 1.5-1 0.6 0.7 1.6 1 0.9 0.3 1.8 0.1 1-0.1 1.8-0.7 0.8-0.5 1.2-1.4 0.5 0.3 1.1 0.5 0.5 0.1 1.1 0.1 0.6-0.1 1.1-0.3 0.5-0.2 1-0.6l0.1-0.1q0.1 0.7 0.1 1.5 0 0.7-0.1 1.4-0.1 0.8-0.3 1.5-0.2 0.7-0.4 1.4z"/>
		<path class="s15" d="m353.9 177.1q0.2 0.5 0.3 1.1 0.1 0.5-0.1 1-0.1 0.6-0.3 1.1-0.3 0.5-0.7 0.9l-0.1 0.1q-0.5 0.4-1 0.6-0.5 0.2-1.1 0.2-0.6 0.1-1.1-0.1-0.6-0.1-1.1-0.4-0.4 0.8-1.2 1.4-0.8 0.5-1.8 0.7-0.9 0.1-1.8-0.2-1-0.3-1.6-0.9-0.7 0.6-1.5 1-0.8 0.3-1.8 0.2-0.9 0-1.6-0.5-0.8-0.5-1.3-1.2-0.6 0.5-1.3 0.8-0.7 0.3-1.5 0.3-0.8 0-1.5-0.2-0.8-0.3-1.4-0.8-0.1-0.1-0.3-0.3-0.1-0.1-0.2-0.3-0.2-0.1-0.3-0.3-0.1-0.1-0.2-0.3 0-0.1 0-0.1 0-0.1 0-0.1-0.1 0-0.1-0.1 0 0 0-0.1 0 0.1-0.1 0.1 0 0 0 0.1-0.1 0-0.1 0-0.1 0.1-0.1 0.1-0.4 0.3-0.8 0.5-0.5 0.2-0.9 0.2-0.5 0-1-0.1-0.4-0.1-0.8-0.4-0.4-0.2-0.6-0.5-0.3-0.3-0.4-0.7-0.2-0.3-0.3-0.7-0.1-0.4 0-0.8 0-0.1 0-0.1 0-0.1 0-0.2 0-0.1 0-0.2 0.1 0 0.1-0.1 0 0-0.1 0.1 0 0.1-0.1 0.1 0 0.1 0 0.1-0.1 0.1-0.1 0.1-0.4 0.3-0.8 0.5-0.5 0.2-1 0.2-0.5 0-1-0.2-0.4-0.2-0.8-0.6-0.3-0.5-0.4-1.1-0.2-0.7 0-1.3 0.1-0.6 0.5-1.1 0.4-0.5 0.9-0.8 0.2-0.2 0.5-0.3 0.2-0.1 0.4-0.1 0.3-0.1 0.5-0.1 0.3-0.1 0.5 0 0.4 0 0.8 0 0.4 0.1 0.7 0.2 0.4 0.1 0.7 0.3 0.4 0.2 0.7 0.5c-0.3-0.7-0.4-1.4-0.3-2.1 0.2-0.7 0.6-1.3 1.2-1.7 0.5-0.4 1.2-0.6 1.9-0.6 0.7 0 1.4 0.3 1.9 0.8q-0.1-0.4 0-0.8 0-0.3 0.1-0.7 0.2-0.4 0.4-0.7 0.3-0.3 0.6-0.5c1.4-0.8 3.7-0.1 4.8 1.2 0 0 1.5-3.7 4.2-3.3 0.6 0.1 3.3 1.3 3.2 2.3q0 0 0 0 0.1 0.1 0.1 0.1 0 0-0.1 0 0 0.1 0 0.1 0.1 0 0.1-0.1 0 0 0 0 0-0.1 0-0.1 0.1 0 0.1 0 0.2-0.3 0.5-0.6 0.3-0.2 0.6-0.4 0.3-0.1 0.7-0.2 0.4-0.1 0.7 0 0.4 0 0.8 0.1 0.4 0 0.8 0.1 0.4 0.1 0.8 0.3 0.3 0.1 0.7 0.3c2.1 0.8 4.3 1.8 5.5 3.7 1.2 1.9 0.6 5-1.6 5.6z"/>
		<path class="s13" d="m335 190q-0.1 0.8-0.3 1.5-0.3 0.7-0.6 1.4-0.3 0.7-0.8 1.3-0.4 0.6-0.9 1.1c-1.8 1.8-3.4 0-3.4-2.6 0-2.4 0.9-6.1 3-6.8 2.1-0.7 3.4 1.5 3 4.1z"/>
		<path class="s15" d="m367 216.5c-0.8-2-4.3-4-6.4-4h-1.4q-1.1 0-2.2 0.1-1 0-2.1 0.1-1.1 0.1-2.2 0.2-1 0.1-2.1 0.2-2.1 0.2-4.3 0.5-2.1 0.3-4.2 0.7-2.2 0.3-4.3 0.8-2.1 0.4-4.2 0.9c-2.6 0.6-5.1 1.5-7 2.2-2.6 1-4 1.7-4 1.7 0 0 2.7 18.4 4.2 36.6 0.7 10.2 0.4 20.3 0.7 27.2h42.6c1.5-8.3 1.3-15.6 1.4-30.6 0.1-9.1-1.4-28.3-4.5-36.6z"/>
		<path class="s14" d="m325.8 246.3c0.3 3.9 0.7 7.9 1 11.9 5-7.3 7.8-27.3 7.8-27.3z"/>
		<path class="s15" d="m320.1 221.2c-6.1 3.5-12.1 21-12.1 21l14 10.6c5.4-5.1 13.2-17.6 14-22.6 1.4-7.6-6.1-14.4-15.9-9z"/>
		<path class="s15" d="m308.1 400.4c0 1.8-1.1 3.4-2.7 4.1-1.7 0.6-3.5 0.3-4.8-1-1.2-1.2-1.6-3.1-0.9-4.7 0.7-1.7 2.3-2.7 4-2.7q0.9 0 1.7 0.3 0.8 0.4 1.4 1 0.6 0.6 0.9 1.4 0.4 0.8 0.4 1.6z"/>
		<path class="s15" d="m373 400.4c0 1.8 1.1 3.4 2.7 4.1 1.6 0.6 3.5 0.3 4.7-1 1.3-1.2 1.6-3.1 1-4.7-0.7-1.7-2.3-2.7-4-2.7q-0.9 0-1.7 0.3-0.8 0.4-1.4 1-0.6 0.6-1 1.4-0.3 0.8-0.3 1.6z"/>
		<path class="s15" d="m336.3 399c0 1.8 1 3.3 2.7 4 1.6 0.7 3.5 0.3 4.7-0.9 1.2-1.3 1.6-3.1 0.9-4.8-0.6-1.6-2.2-2.6-4-2.7q-0.8 0.1-1.6 0.4-0.8 0.3-1.5 0.9-0.6 0.6-0.9 1.4-0.3 0.8-0.3 1.7z"/>
		<path class="s15" d="m339.3 393.7v-8.4h-12.5q-0.9 0-1.8 0-0.9 0.1-1.9 0.1-0.9 0.1-1.8 0.3-0.9 0.1-1.8 0.3l-23.2 4.5c-0.5 0.1-1 0.3-1.3 0.8-0.3 0.4-0.4 0.9-0.4 1.5 0.1 0.5 0.3 1 0.7 1.3 0.4 0.4 1 0.5 1.5 0.5z"/>
		<path class="s15" d="m339.3 393.7v-8.4h12.4q1 0 1.9 0 0.9 0.1 1.8 0.2 0.9 0.1 1.8 0.2 0.9 0.1 1.8 0.3l26.1 4.2c0.5 0.1 1 0.4 1.3 0.8 0.3 0.4 0.4 0.9 0.4 1.5-0.1 0.5-0.3 1-0.7 1.3-0.4 0.4-1 0.6-1.5 0.5z"/>
		<path fill-rule="evenodd" class="s15" d="m331.6 346.8h15.4v38.5h-15.5z"/>
		<path fill-rule="evenodd" class="s15" d="m333.8 328.9h11v17.9h-11z"/>
		<path fill-rule="evenodd" class="s9" d="m333.8 334.1l11 2.8v-8.1h-11v5.3z"/>
		<path fill-rule="evenodd" class="s15" d="m298.1 288.3h5.6v23.9h-5.6z"/>
		<path class="s8" d="m331.7 328.9v-103.7q0-1.5 0.3-2.9 0.4-1.4 1-2.8 0.6-1.3 1.4-2.5 0.9-1.1 2-2.1l7.4-6.4q0.9-0.9 2-1.5 1-0.6 2.2-1.1 1.1-0.4 2.3-0.6 1.2-0.2 2.5-0.2h26.7l13 13.9v109.9z"/>
		<path class="s8" d="m292 308.8h60.9v20.1h-70.8c-1.3-0.1-2.5-0.4-3.6-1-1.1-0.7-2.1-1.6-2.7-2.7-0.6-1.1-0.9-2.3-0.9-3.6 0-1.3 0.3-2.5 1-3.6q1.2-2.1 3-3.8 1.7-1.7 3.8-3 2.1-1.2 4.5-1.8 2.4-0.6 4.8-0.6z"/>
		<path class="s18" d="m392.5 219v109.9h-110.4c-1.3-0.1-2.5-0.4-3.6-1-1.1-0.7-2.1-1.6-2.7-2.7-0.6-1.1-0.9-2.3-0.9-3.6 0-1.3 0.3-2.5 1-3.6q1.2-2.1 3-3.8 1.7-1.7 3.8-3 2.1-1.2 4.5-1.8 2.4-0.6 4.8-0.6h30.7c1.2 0 2.4-0.2 3.5-0.7 1.1-0.5 2.1-1.1 2.9-2 0.9-0.8 1.5-1.8 2-2.9 0.4-1.1 0.7-2.3 0.7-3.5v-74.5q0-1.5 0.3-2.9 0.3-1.4 0.9-2.8 0.6-1.3 1.5-2.5 0.8-1.1 1.9-2.1l7.4-6.5q0.9-0.8 2-1.4 1.1-0.6 2.2-1.1 1.2-0.4 2.4-0.6 1.2-0.2 2.4-0.2h26.7z"/>
		<path class="s8" d="m340.6 328.9v-103.7q0-1.5 0.3-2.9 0.3-1.4 0.9-2.8 0.6-1.3 1.5-2.5 0.9-1.1 2-2.1l7.4-6.4q0.9-0.9 1.9-1.5 1.1-0.6 2.3-1.1 1.1-0.4 2.3-0.6 1.2-0.2 2.5-0.2h20.8q1.4 0 2.7 0.3 1.4 0.2 2.7 0.8 1.3 0.6 2.4 1.4 1.1 0.8 2.1 1.8l5.3 5.6q0.9 1 1.6 2 0.7 1.1 1.1 2.3 0.5 1.2 0.8 2.5 0.2 1.3 0.2 2.6v94.1c0 1.3-0.3 2.7-0.8 3.9-0.5 1.3-1.3 2.4-2.2 3.4-1 1-2.2 1.7-3.4 2.3-1.3 0.5-2.6 0.8-4 0.8z"/>
		<path class="s10" d="m340.6 328.9v-103.7q0-1.5 0.3-2.9 0.3-1.4 0.9-2.8 0.6-1.3 1.5-2.5 0.9-1.1 2-2.1l7.4-6.4q0.9-0.9 1.9-1.5 1.1-0.6 2.3-1.1 1.1-0.4 2.3-0.6 1.2-0.2 2.5-0.2h20.8q1.4 0 2.7 0.3 1.4 0.2 2.7 0.8 1.3 0.6 2.4 1.4 1.1 0.8 2.1 1.8l5.3 5.6q0.9 1 1.6 2 0.7 1.1 1.1 2.3 0.5 1.2 0.8 2.5 0.2 1.3 0.2 2.6v94.1c0 1.3-0.3 2.7-0.8 3.9-0.5 1.3-1.3 2.4-2.2 3.4-1 1-2.2 1.7-3.4 2.3-1.3 0.5-2.6 0.8-4 0.8z"/>
		<path class="s8" d="m319.9 295.6q-4.6-1.6-9.4-2.4-4.7-0.8-9.6-0.8-4.9 0-9.6 0.8-4.8 0.8-9.4 2.4-0.9 0.4-1.9 0.4-1-0.1-1.9-0.4-0.9-0.4-1.7-1-0.7-0.7-1.2-1.5c-1.1-2.5 0.4-5.6 3.5-6.7q5.3-1.8 10.9-2.8 5.6-0.9 11.3-0.9 5.7 0 11.2 0.9 5.6 1 11 2.8c3.1 1.1 4.6 4.2 3.5 6.7q-0.5 0.8-1.2 1.5-0.8 0.6-1.7 1-0.9 0.3-1.9 0.3-1 0.1-1.9-0.3z"/>
		<path class="s18" d="m319.9 295.6q-4.6-1.6-9.4-2.4-4.7-0.8-9.6-0.8-4.9 0-9.6 0.8-4.8 0.8-9.4 2.4-0.9 0.4-1.9 0.4-1-0.1-1.9-0.4-0.9-0.4-1.7-1-0.7-0.7-1.2-1.5c-1.1-2.5 0.4-5.6 3.5-6.7q5.3-1.8 10.9-2.8 5.6-0.9 11.3-0.9 5.7 0 11.2 0.9 5.6 1 11 2.8c3.1 1.1 4.6 4.2 3.5 6.7q-0.5 0.8-1.2 1.5-0.8 0.6-1.7 1-0.9 0.3-1.9 0.3-1 0.1-1.9-0.3z"/>
	</g>
	<g id="freepik--character-1--inject-2">
		<g id="freepik--group--inject-2">
			<path class="s15" d="m164.5 196.4c-0.2 0.6-0.1 1.2 0.3 1.3 0.4 0.1 0.9-0.2 1.1-0.8 0.2-0.6 0.1-1.2-0.3-1.3-0.4-0.2-0.9 0.2-1.1 0.8z"/>
			<path class="s19" d="m164.4 197q0 0.8 0.1 1.5 0.1 0.8 0.2 1.6 0.1 0.7 0.3 1.5 0.2 0.7 0.5 1.5-0.4 0.1-0.8 0.1-0.4 0-0.8 0-0.4-0.1-0.8-0.2-0.3-0.2-0.7-0.4z"/>
			<path class="s15" d="m163.5 192.4q0.1 0 0.1 0 0 0 0 0 0.1 0 0.1 0 0 0 0.1 0 0.3-0.1 0.6-0.2 0.4 0 0.7 0.1 0.4 0 0.7 0.1 0.3 0.2 0.6 0.4 0 0 0.1 0 0.1 0 0.2 0 0 0 0.1 0 0.1-0.1 0.1-0.1 0.1-0.1 0.1-0.1 0-0.1 0-0.2 0 0 0-0.1 0 0-0.1-0.1-0.3-0.3-0.7-0.4-0.5-0.2-0.9-0.3-0.4 0-0.9 0-0.4 0-0.8 0.2-0.1 0-0.1 0-0.1 0.1-0.1 0.1-0.1 0.1-0.1 0.2 0 0.1 0.1 0.1 0 0.1 0 0.1 0 0 0 0.1 0.1 0 0.1 0 0 0 0.1 0.1z"/>
			<path class="s20" d="m142.6 198.6c1.1 5.7 2.2 16.1-1.8 19.9 0 0 1.6 5.8 12.1 5.8 11.7 0 5.6-5.8 5.6-5.8-6.3-1.5-5.3-6.2-4.2-10.7z"/>
			<path class="s20" d="m145.2 188.3c-2.1 7.4-3.7 11.6-1.3 16.6 3.5 7.6 16 8.6 19.4-0.1 2.6-8 5.2-16.3-1-21.7-1.3-1.2-3-2-4.7-2.4-1.8-0.4-3.6-0.3-5.3 0.2-1.7 0.5-3.3 1.5-4.6 2.7-1.2 1.3-2.1 2.9-2.6 4.6z"/>
			<path class="s15" d="m137.1 190.7c-0.5-2.7-0.7-5.7 0.7-8.2 1.4-2.4 4.7-3.9 7.1-2.5 1.6-3.3 4.6-5.7 8.3-6.4 3.6-0.7 7.4 0.3 10.1 2.8 2.7 2.5 4.1 6.1 3.8 9.8-0.4 3.7-2.5 7-5.6 8.9q0.8-3.1 1.6-6.1-0.2 1-0.5 2-0.4 1-0.9 2-0.6 0.9-1.3 1.7-0.7 0.8-1.5 1.5l1-6.1q-0.2 1.1-0.5 2.1-0.4 1-1 1.9-0.6 0.9-1.4 1.7-0.7 0.8-1.7 1.3l1.2-4.3q-0.2 0.8-0.5 1.5-0.2 0.7-0.5 1.4-0.3 0.8-0.6 1.5-0.3 0.7-0.7 1.4c-1 1.1-1.6 8.6-5 8.9-11.9 2.3-10.8-10.4-12.1-16.8z"/>
			<path class="s20" d="m153 194.3q-0.1 0.7 0 1.4 0 0.7 0.2 1.4 0.1 0.7 0.4 1.4 0.3 0.6 0.6 1.3c1.4 2.1 3.3 1.3 4-0.9 0.7-2 0.7-5.5-1.1-6.9-1.9-1.3-3.8 0-4.1 2.3z"/>
			<path class="s20" d="m124.8 266.4c-1.3-0.4-7.2-3.5-8.2-3 2.8-7 4.5-8 5.7-12.5q0.3-0.8 0.4-1.7 0-0.9-0.2-1.7-0.1-0.9-0.5-1.7-0.4-0.7-1-1.4c-1.7-2.4-2.4-3.6-5.3-3.3-4 6.8-9.1 15-11 22.6-0.7 2.6-1.2 4.5 0.3 6.7 1.4 1.9 3.8 2.6 6.2 2.8 5.5 0.5 13.8-0.5 13.7-3.8-0.1-2.1-0.1-3-0.1-3z"/>
			<path class="s20" d="m123.9 266.1l4.7-1.5-0.4 8.5c0 0-3.8 0.1-5.8-2.4z"/>
			<path fill-rule="evenodd" class="s20" d="m134.5 264.4l-0.7 7.1-5.6 1.6 0.4-8.5 5.9-0.1z"/>
			<path class="s20" d="m188.6 272.2c0 0-6.6-5.2-15.2-22.2q-1.9-3.6-3.7-7.2c-1.2-2.4-2.3-4.9-3.4-7.4l10.2-4.4c2.1 4.6 5.4 9.3 7.7 13.8 2.4 4.6 7.8 15.4 8.5 16.4 0.4 0.5 0.7 0.9 1.1 1.4l0.5 0.7-6.6 7.6z"/>
			<path class="s20" d="m197.3 239l-2-2.4-1-3.7 6.2-5.7q0.3 0.4 0.7 0.9 0.3 0.5 0.6 0.9 0.3 0.5 0.6 1 0.3 0.5 0.6 1 0.1 0.1 0.1 0.2 0 0.2 0.1 0.3 0 0.1 0 0.2 0 0.2 0 0.3l-0.2 6.4z"/>
			<path fill-rule="evenodd" class="s20" d="m194.4 229l4.6-4.2 1.4 2.4-6.1 5.7 0.1-3.9z"/>
			<path class="s20" d="m197.3 237.2c0.2-0.6 0.3 0.7 0.8 0.2 1.4-1.7 3.3-1.8 4.5 0 1.2 1.8 0.2 19.6-1.7 25.2-1.2 3.7-1.9 6.6-5.1 8.9q-0.5 0.4-1 0.7-0.5 0.3-1.1 0.5-0.6 0.2-1.2 0.3-0.6 0.1-1.2 0.1-0.6 0-1.2-0.1-0.6-0.2-1.1-0.5-0.5-0.3-0.9-0.8-0.4-0.5-0.7-1c-1-2.3 2.6-10.7 3.8-13.4 4-8.6 4.3-12 6.1-20.1z"/>
			<path class="s8" d="m184.1 236.5l8.2-0.1q0.4 0 0.9 0 0.4 0 0.8-0.1 0.5-0.1 0.9-0.2 0.4-0.1 0.8-0.3 0.5-0.2 0.9-0.6 0.5-0.4 0.8-0.8 0.4-0.5 0.7-1 0.2-0.5 0.4-1c1.2-3 1.3-6.3 1.7-9.4 0.5-3.1 1.4-6.4 3.8-8.6-4.3 0.6-12-0.7-15.4 2.8-1.7 1.9-4.8 19.3-4.5 19.3z"/>
			<path class="s10" d="m184.1 236.5l8.2-0.1q0.4 0 0.9 0 0.4 0 0.8-0.1 0.5-0.1 0.9-0.2 0.4-0.1 0.8-0.3 0.5-0.2 0.9-0.6 0.5-0.4 0.8-0.8 0.4-0.5 0.7-1 0.2-0.5 0.4-1c1.2-3 1.3-6.3 1.7-9.4 0.5-3.1 1.4-6.4 3.8-8.6-4.3 0.6-12-0.7-15.4 2.8-1.7 1.9-4.8 19.3-4.5 19.3z"/>
			<path class="s20" d="m198.1 224.3c-0.5 0.2-0.8 1.8-0.7 2.3l0.5 0.8 0.9 4 3.1-1.7-2.8-5q-0.1-0.1-0.2-0.2-0.1-0.1-0.2-0.1-0.2-0.1-0.3-0.1-0.2 0-0.3 0z"/>
			<path class="s8" d="m127.6 219.9c-7.3 1.7-18.1 24.4-18.1 24.4l14.7 10q1.6-2.2 3.1-4.5 1.5-2.3 2.9-4.7 1.4-2.4 2.8-4.8 1.3-2.4 2.6-4.8c4.3-9.1-0.5-17.3-8-15.6z"/>
			<path class="s15" d="m138.3 220.5c-0.9-1.9-1.8-3.9 0.1-4.6 2.1-0.7 13.6-1.5 17.5-0.1q0.8 0.2 1.4 0.7 0.7 0.5 1.1 1.2 0.4 0.7 0.5 1.5 0.1 0.8-0.2 1.6v0.1z"/>
			<path class="s14" d="m132.1 233.1l-10.4 19.6 2.5 1.6c0 0 4.7-6.5 8-12.2z"/>
			<path class="s8" d="m172 229.9c1.6 8-2.1 27-2.1 58h-41.6c-0.3-6.2 4.3-21.1-1.4-50.6-0.1-1-0.2-17.2 0.7-17.3q1.5-0.3 3.1-0.5 1.5-0.3 3-0.4 1.5-0.2 3.1-0.4 1.5-0.1 3-0.2 2.2-0.1 4.4-0.2 2.2 0 4.5 0 2.2 0 4.4 0 2.2 0.1 4.4 0.2c2.4 0.3 6.2 1.8 8.6 2.6 3.7 1.3 5.1 4.9 5.9 8.8z"/>
			<path class="s14" d="m161 237.9c1.1 6.5 5.4 15.2 9.7 20.3 0.1-3.7 0.5-7.6 0.5-10.6z"/>
			<path class="s8" d="m158 228c-1 7.4 13.5 26.2 13.5 26.2l14.6-10c0 0-4.1-10.4-10.9-17.2-7.7-7.8-16-7-17.2 1z"/>
			<path fill-rule="evenodd" class="s20" d="m205.7 391.1h7.8l1.8-18h-7.8l-1.8 18z"/>
			<path fill-rule="evenodd" class="s14" d="m215.2 374.2l-0.9 9.3h-7.8l0.9-9.3h7.8z"/>
			<path fill-rule="evenodd" class="s20" d="m175 391.1h7.8l3.9-18h-7.8l-3.9 18z"/>
			<g style="opacity: .2">
				<path fill-rule="evenodd" class="s21" d="m178.8 374.1h7.8l-2.1 9.3-7.8-0.1 2.1-9.2z"/>
			</g>
			<path class="s15" d="m213.9 387.6h-8.5q-0.1 0-0.2 0.1-0.1 0.1-0.2 0.2-0.1 0.1-0.2 0.2 0 0.1 0 0.2l-1.6 8.9q0 0.3 0 0.6 0 0.2 0.1 0.5 0.2 0.2 0.3 0.4 0.2 0.2 0.5 0.3 0 0 0 0 0.1 0 0.1 0 0.1 0 0.1 0 0 0 0.1 0c3-0.1 7.5-0.3 11.3-0.3 4.5 0 8.4 0.3 13.7 0.3 3.2 0 4.1-4.2 2.7-4.6-6.1-1.7-11-1.9-16.3-6.1q-0.2-0.1-0.4-0.3-0.2-0.1-0.5-0.2-0.2-0.1-0.5-0.1-0.2-0.1-0.5-0.1z"/>
			<path class="s8" d="m220.1 390.5c1 0 2-0.1 2.3-0.6q0.1-0.1 0.1-0.2 0-0.1 0-0.2 0-0.1 0-0.2 0-0.1-0.1-0.2 0-0.1-0.1-0.1-0.1-0.1-0.1-0.1-0.1-0.1-0.2-0.1-0.1-0.1-0.2-0.1c-1.3-0.4-4 1.2-4.1 1.3q0 0 0 0-0.1 0-0.1 0 0 0.1 0 0.1 0 0 0 0 0 0.1 0 0.1 0 0 0.1 0 0 0.1 0 0.1 0 0 0 0 0.3 0.1 0.6 0.1 0.3 0 0.6 0.1 0.3 0 0.6 0 0.3 0 0.6 0zm1.3-1.5h0.3q0.1 0 0.1 0 0.1 0.1 0.1 0.1 0.1 0 0.1 0.1 0 0 0.1 0.1c0.1 0.2 0.1 0.3 0 0.4-0.4 0.5-2.4 0.5-3.8 0.3q0.3-0.2 0.7-0.4 0.4-0.1 0.8-0.3 0.4-0.1 0.8-0.2 0.4-0.1 0.8-0.1z"/>
			<path class="s8" d="m217.8 390.3h0.1c0.9-0.4 2.8-2.1 2.6-3 0-0.2-0.2-0.5-0.7-0.5q-0.1 0-0.2 0-0.2 0-0.3 0-0.1 0.1-0.3 0.1-0.1 0.1-0.2 0.2c-1 0.8-1.2 2.9-1.2 3q0 0 0 0 0 0.1 0 0.1 0 0 0 0 0.1 0.1 0.1 0.1 0 0 0 0 0 0 0 0 0 0 0 0 0.1 0 0.1 0zm1.9-3.1h0.1c0.3 0 0.3 0.1 0.3 0.2 0.1 0.5-1.1 1.8-2.1 2.4q0-0.3 0.1-0.7 0.1-0.3 0.2-0.6 0.1-0.3 0.3-0.6 0.2-0.3 0.4-0.5 0.1-0.1 0.2-0.1 0-0.1 0.1-0.1 0.1 0 0.2 0 0.1 0 0.2 0z"/>
			<path class="s15" d="m183.4 387.6h-8.8q-0.1 0-0.2 0.1-0.1 0.1-0.2 0.2-0.1 0.1-0.2 0.2 0 0.1 0 0.2l-1.6 8.9q0 0.3 0 0.6 0 0.2 0.1 0.5 0.2 0.2 0.4 0.4 0.2 0.2 0.4 0.3 0 0 0.1 0 0 0 0 0 0.1 0 0.1 0 0 0 0.1 0c3-0.1 4.5-0.3 8.3-0.3 2.4 0 5.4 0.3 8.7 0.3 3.3 0 3.7-4.2 2.4-4.5-6-1.7-6.5-4-8.4-6.3q-0.1-0.2-0.2-0.3-0.2-0.1-0.3-0.1-0.2-0.1-0.4-0.1-0.2-0.1-0.3-0.1z"/>
			<path class="s8" d="m187.9 391.5q0.3 0 0.5 0 0.3 0 0.5-0.1 0.3 0 0.5-0.1 0.2-0.1 0.4-0.3 0.1-0.1 0.1-0.2 0-0.1 0-0.2 0-0.2 0-0.3 0-0.1-0.1-0.2 0-0.1-0.1-0.1-0.1-0.1-0.1-0.1-0.1-0.1-0.2-0.1-0.1-0.1-0.2-0.1c-1.1-0.3-3.3 1.2-3.4 1.3q0 0 0 0 0 0 0 0 0 0.1 0 0.1 0 0 0 0 0 0.1 0 0.1 0 0 0 0 0 0.1 0.1 0.1 0 0 0 0 0.2 0 0.5 0.1 0.3 0 0.5 0.1 0.3 0 0.5 0 0.3 0 0.5 0zm1-1.5h0.2q0.1 0 0.2 0.1 0 0 0 0 0.1 0 0.1 0.1 0.1 0 0.1 0.1c0.2 0.3 0.1 0.4 0 0.4-0.3 0.5-1.9 0.5-3.1 0.3q0.3-0.2 0.6-0.4 0.3-0.1 0.6-0.2 0.3-0.2 0.6-0.3 0.4 0 0.7-0.1z"/>
			<path class="s8" d="m186 391.3c0.8-0.4 2.4-2.1 2.2-3q0-0.1-0.1-0.2 0-0.1-0.1-0.2-0.1 0-0.2-0.1-0.1 0-0.2 0-0.1 0-0.2 0-0.1 0-0.2 0.1-0.1 0-0.2 0-0.1 0.1-0.2 0.2c-0.9 0.7-1.1 3-1.1 3q0 0.1 0 0.1 0 0 0.1 0 0 0 0 0.1 0 0 0 0zm1.6-3.1h0.1c0.2 0 0.2 0.1 0.2 0.1 0.1 0.6-0.9 1.8-1.7 2.5q0.1-0.4 0.1-0.7 0.1-0.3 0.2-0.6 0.1-0.3 0.3-0.6 0.2-0.3 0.4-0.6 0 0 0.1-0.1 0 0 0.1 0 0 0 0.1 0 0 0 0.1 0z"/>
			<path class="s15" d="m157.5 287.9c0 0 36.8 15.2 44.4 26.9-4.5 29.8-12.6 63.6-12.6 63.6h-13.9q0-5.5 0.2-10.9 0.3-5.5 0.7-11 0.5-5.5 1.1-10.9 0.7-5.5 1.6-10.9c2-36.4-63.4 1.2-50.7-46.8z"/>
			<path class="s22" d="m182.9 313q-0.9 0.1-1.9 0.1-1 0.1-1.9 0.2-1 0.1-1.9 0.3-1 0.1-2 0.3l-8 1.2q1.5 1.3 3.1 2.6 1.6 1.3 3.3 2.5 1.6 1.2 3.3 2.3 1.7 1.2 3.4 2.2c2.8 1.8 5.9 3.5 9.1 3.5 3.7 0 13.8-4.7 12.1-9.6-1.6-5-14.4-5.8-18.6-5.6z"/>
			<path class="s15" d="m169.9 287.9c0 0 34.1 4.4 52.9 15.1 5.8 3.3 5 13.9 4.8 20.8q-0.2 7-0.9 14-0.7 6.9-2.1 13.8-1.3 6.8-3.2 13.6-1.9 6.7-4.4 13.2h-11.6c0 0 0.6-18.8 0.2-49.3-0.1-9.1-18.5-12.1-36.5-13.2-3.8-0.2-7.6-1-11.2-2.3-3.5-1.2-6.9-3-10-5.2-3.1-2.2-5.9-4.8-8.3-7.8-2.4-3-4.3-6.2-5.8-9.7l-1.2-3z"/>
			<path class="s8" d="m219.8 375.3c0.1 0-0.7 5.5-0.7 5.5h-16l-0.5-4.9z"/>
			<path class="s8" d="m190.6 375.3c0.1 0-1.5 5.5-1.5 5.5h-16l0.3-4.9z"/>
			<path fill-rule="evenodd" class="s8" d="m147.6 315.5l-11.4 84.5-2.1-0.3 8.8-84.8 4.7 0.6z"/>
			<path fill-rule="evenodd" class="s12" d="m147.2 318.5l-11 81.5-2.1-0.3 8.5-81.2h4.6z"/>
			<path class="s8" d="m187.9 318.5h-65q0-1.4 0.6-2.8 0.6-1.4 1.6-2.4 1.1-1.1 2.4-1.6 1.4-0.6 2.9-0.6h50.1q1.5 0 2.9 0.6 1.3 0.5 2.4 1.6 1 1 1.6 2.4 0.5 1.4 0.5 2.8z"/>
			<path class="s18" d="m187.9 318.5h-65q0-1.4 0.6-2.8 0.6-1.4 1.6-2.4 1.1-1.1 2.4-1.6 1.4-0.6 2.9-0.6h50.1q1.5 0 2.9 0.6 1.3 0.5 2.4 1.6 1 1 1.6 2.4 0.5 1.4 0.5 2.8z"/>
			<path fill-rule="evenodd" class="s8" d="m126 318.5l-9.8 82.2h2.1l12.4-82.2h-4.7z"/>
			<path fill-rule="evenodd" class="s8" d="m184.9 318.5l9.8 82.2h-2.1l-12.4-82.2h4.7z"/>
			<path fill-rule="evenodd" class="s12" d="m184.9 318.5l9.8 82.2h-2.1l-12.4-82.2h4.7z"/>
			<path fill-rule="evenodd" class="s8" d="m171.8 318.5l0.2 82.2h-2.1l-2.8-82.2h4.7z"/>
		</g>
	</g>
</svg>